<svg width="48" height="48" viewBox="0 0 48 48" fill="none" xmlns="http://www.w3.org/2000/svg">
<rect width="48" height="48" rx="4" fill="#FFE812"/>
<g clip-path="url(#clip0_107_30)">
<path d="M24 11C16.272 11 10 15.9763 10 22.1057C10 26.0764 12.5846 29.5529 16.5649 31.5208C16.3495 32.2664 15.1692 36.3064 15.1692 36.6272C15.1611 36.6886 15.1687 36.7512 15.1914 36.8088C15.214 36.8665 15.2508 36.9173 15.2985 36.9567C15.406 37.0014 15.5269 37.0014 15.6345 36.9567C16.0738 36.896 20.7434 33.5929 21.5446 33.0207C22.3692 33.1403 23.2014 33.1982 24.0345 33.1941C31.7883 33.1941 38.0345 28.2264 38.0345 22.0884C38.0345 15.9503 31.728 11 24 11Z" fill="black"/>
</g>
<defs>
<clipPath id="clip0_107_30">
<rect width="28" height="26" fill="white" transform="translate(10 11)"/>
</clipPath>
</defs>
</svg>
