<svg width="40" height="40" viewBox="0 0 40 40" fill="none" xmlns="http://www.w3.org/2000/svg">
<path d="M38 0H2C0.89543 0 0 0.89543 0 2V38C0 39.1046 0.89543 40 2 40H38C39.1046 40 40 39.1046 40 38V2C40 0.89543 39.1046 0 38 0Z" fill="white"/>
<path fill-rule="evenodd" clip-rule="evenodd" d="M28.64 20.2C28.6383 19.5833 28.5848 18.9678 28.48 18.36H20V21.85H24.84C24.7408 22.3994 24.531 22.923 24.2233 23.3888C23.9156 23.8547 23.5164 24.2532 23.05 24.56V26.82H26C26.8856 25.9659 27.5818 24.9353 28.0435 23.7948C28.5052 22.6544 28.7221 21.4296 28.68 20.2H28.64Z" fill="#4285F4"/>
<path fill-rule="evenodd" clip-rule="evenodd" d="M20 29C22.2053 29.068 24.3527 28.2877 26 26.82L23.09 24.56C22.1815 25.1435 21.1196 25.443 20.04 25.42C18.9244 25.3977 17.8435 25.0284 16.9475 24.3636C16.0514 23.6987 15.3847 22.7712 15.04 21.71H12V24C12.7402 25.4921 13.88 26.7494 15.2924 27.6322C16.7048 28.515 18.3345 28.9885 20 29Z" fill="#34A853"/>
<path fill-rule="evenodd" clip-rule="evenodd" d="M15.0002 21.71C14.6268 20.6006 14.6268 19.3994 15.0002 18.29V16H12.0002C11.3834 17.2432 11.0625 18.6122 11.0625 20C11.0625 21.3878 11.3834 22.7568 12.0002 24L15.0002 21.67V21.71Z" fill="#FBBC05"/>
<path fill-rule="evenodd" clip-rule="evenodd" d="M20 14.58C21.2803 14.5562 22.5176 15.0418 23.44 15.93L26 13.34C24.3757 11.8168 22.2266 10.9786 20 11C18.3345 11.0115 16.7048 11.485 15.2924 12.3678C13.88 13.2506 12.7402 14.5079 12 16L15 18.33C15.3447 17.2688 16.0114 16.3413 16.9075 15.6764C17.8035 15.0115 18.8844 14.6423 20 14.62V14.58Z" fill="#EA4335"/>
</svg>
